<?xml version="1.0" encoding="UTF-8" standalone="no"?>
<!-- Created with Inkscape (http://www.inkscape.org/) -->

<svg
   width="65.214996mm"
   height="13.415mm"
   viewBox="0 0 65.214991 13.415"
   version="1.1"
   id="svg1"
   xml:space="preserve"
   inkscape:version="1.3.2 (091e20e, 2023-11-25, custom)"
   sodipodi:docname="logo1.svg"
   xmlns:inkscape="http://www.inkscape.org/namespaces/inkscape"
   xmlns:sodipodi="http://sodipodi.sourceforge.net/DTD/sodipodi-0.dtd"
   xmlns="http://www.w3.org/2000/svg"
   xmlns:svg="http://www.w3.org/2000/svg"><sodipodi:namedview
     id="namedview1"
     pagecolor="#505050"
     bordercolor="#eeeeee"
     borderopacity="1"
     inkscape:showpageshadow="0"
     inkscape:pageopacity="0"
     inkscape:pagecheckerboard="0"
     inkscape:deskcolor="#505050"
     inkscape:document-units="mm"
     inkscape:zoom="1.3843855"
     inkscape:cx="129.29924"
     inkscape:cy="145.91311"
     inkscape:window-width="1450"
     inkscape:window-height="1020"
     inkscape:window-x="70"
     inkscape:window-y="0"
     inkscape:window-maximized="0"
     inkscape:current-layer="layer1" /><defs
     id="defs1"><linearGradient
       id="swatch18"
       inkscape:swatch="solid"><stop
         style="stop-color:#000000;stop-opacity:1;"
         offset="0"
         id="stop18" /></linearGradient><rect
       x="276.65704"
       y="522.97571"
       width="140.13438"
       height="25.281975"
       id="rect1" /><clipPath
       id="clip0_6_2"><rect
         width="193"
         height="52"
         fill="#ffffff"
         id="rect3"
         x="0"
         y="0" /></clipPath><clipPath
       id="clip1_6_2"><rect
         width="52"
         height="52"
         fill="#ffffff"
         transform="rotate(-45,24.585788,22.585783)"
         id="rect4"
         x="0"
         y="0" /></clipPath></defs><g
     inkscape:label="Layer 1"
     inkscape:groupmode="layer"
     id="layer1"><text
       xml:space="preserve"
       style="font-size:14.0409px;fill:#ffffff;fill-opacity:1;stroke-width:1.17005"
       x="19.319679"
       y="15.363838"
       id="text2"
       transform="matrix(1.2759191,-0.04383933,-0.03141533,0.78482816,0,0)"
       inkscape:transform-center-x="-0.35159209"
       inkscape:transform-center-y="-13.266641"><tspan
         sodipodi:role="line"
         id="tspan2"
         style="fill:#ffffff;fill-opacity:1;stroke-width:1.17005"
         x="19.319679"
         y="15.363838">DDD</tspan></text><g
       id="g12"
       transform="matrix(1.4404327,0,0,0.79894853,-0.63120747,-0.98037112)"
       style="fill:#ffffff;fill-opacity:1;fill-rule:evenodd"><path
         d="M 16.417,9.579 A 7.917,7.917 0 1 1 8.5,1.662 7.917,7.917 0 0 1 16.417,9.579 Z M 12.949,5.186 C 12.672,4.909 11.738,5.394 11.461,5.671 L 9.754,7.379 9.739,7.374 4.967,6.077 A 0.678,0.678 0 0 0 4.374,6.235 L 3.946,6.663 a 0.253,0.253 0 0 0 0.06,0.422 L 7.18,8.84 7.737,9.397 6.265,10.867 a 2.47,2.47 0 0 0 -0.376,0.56 L 4.81,11.1 a 0.654,0.654 0 0 0 -0.59,0.148 l -0.132,0.131 a 0.355,0.355 0 0 0 0,0.502 l 0.776,0.776 0.015,0.014 0.587,0.588 0.015,0.015 0.775,0.776 a 0.356,0.356 0 0 0 0.502,0 L 6.89,13.918 a 0.653,0.653 0 0 0 0.148,-0.59 L 6.71,12.248 A 2.483,2.483 0 0 0 7.27,11.871 L 8.74,10.4 9.297,10.956 11.05,14.13 a 0.253,0.253 0 0 0 0.422,0.06 L 11.9,13.762 a 0.678,0.678 0 0 0 0.158,-0.594 L 10.762,8.398 10.757,8.382 12.464,6.674 c 0.277,-0.277 0.762,-1.21 0.485,-1.488 z"
         id="path1"
         style="fill:#ffffff;fill-opacity:1;fill-rule:evenodd" /></g></g></svg>
